<svg version="1.2" xmlns="http://www.w3.org/2000/svg" viewBox="0 0 415 415" width="30">
	<title>logo-no-background-svg</title>
	<style>
		.s0 { fill: #ffffff } 
	</style>
	<g id="Layer">
		<g id="Layer">
			<g id="tight-bounds">
				<g id="Layer">
					<g id="Layer">
						<g id="Layer">
							<g id="Layer">
								<g id="Layer">
									<g id="textblocktransform">
										<g id="textblock">
											<g id="Layer">
												<g id="Layer">
													<g id="Layer">
														<g id="Layer">
														</g>
													</g>
												</g>
											</g>
										</g>
									</g>
								</g>
							</g>
							<g id="Layer">
								<g id="Layer">
									<g id="Layer">
										<g id="Layer">
										</g>
									</g>
									<g id="icon-0">
										<g id="Layer">
											<g id="Layer">
												<path id="Layer" fill-rule="evenodd" class="s0" d="m0 204.5c0-112.9 91.8-204.5 205-204.5 113.2 0 205 91.6 205 204.5 0 113-91.8 204.6-205 204.6-113.2 0-205-91.6-205-204.6zm205 189.2c104.7 0 189.5-84.7 189.5-189.2 0-104.4-84.8-189.1-189.5-189.1-104.7 0-189.6 84.7-189.5 189.1 0 104.5 84.8 189.2 189.5 189.2z"/>
											</g>
											<g id="Layer">
												<g id="Layer">
													<g id="Layer">
														<g id="dxe-0">
															<g id="Layer">
																<g id="Layer">
																	<path id="Layer" fill-rule="evenodd" class="s0" d="m204.8 231.6c-1.3 0-2.6-0.4-3.7-1l-106.3-60.3c-1.1-0.6-2.1-1.6-2.8-2.7-0.7-1.2-1-2.5-1-3.8-0.1-1.3 0.3-2.6 0.9-3.8 0.7-1.2 1.6-2.1 2.8-2.8l106.8-63.4q0.8-0.5 1.8-0.8 1-0.2 2-0.2 1.1 0 2 0.2 1 0.3 1.9 0.8l106.2 62.5c1.2 0.6 2.1 1.6 2.8 2.8 0.7 1.1 1 2.4 1 3.8 0 1.3-0.4 2.6-1 3.7-0.7 1.2-1.7 2.2-2.8 2.8l-106.8 61.2c-1.2 0.6-2.5 1-3.8 1zm-91.1-68l91.1 51.6 91.6-52.5-91-53.5z"/>
																</g>
																<g id="Layer">
																	<path id="Layer" class="s0" d="m204.8 274c-1.3 0-2.6-0.4-3.7-1l-106.3-60.3c-1.8-0.9-3.2-2.6-3.7-4.5-0.6-2-0.4-4.1 0.7-5.9 1-1.8 2.7-3.1 4.7-3.6 2-0.6 4.1-0.2 5.8 0.8l102.5 58.1 103-59c1.7-1 3.8-1.2 5.8-0.7 1.9 0.5 3.6 1.8 4.6 3.5 1 1.8 1.2 3.9 0.7 5.8-0.5 2-1.8 3.6-3.5 4.6l-106.8 61.1q-0.4 0.3-0.9 0.5-0.4 0.2-0.9 0.3-0.5 0.1-1 0.2-0.5 0.1-1 0.1z"/>
																</g>
																<g id="Layer">
																	<path id="Layer" class="s0" d="m204.8 316.3c-1.3 0-2.6-0.3-3.7-1l-106.3-60.2c-1.8-1-3.2-2.6-3.7-4.6-0.6-2-0.4-4.1 0.7-5.9 1-1.8 2.7-3.1 4.7-3.6 2-0.5 4.1-0.2 5.8 0.9l102.5 58.1 103-59c1.7-1 3.8-1.2 5.7-0.6 1.9 0.5 3.5 1.8 4.5 3.5 1 1.7 1.2 3.7 0.8 5.7-0.5 1.9-1.8 3.5-3.4 4.6l-106.8 61.1q-0.4 0.3-0.9 0.4-0.4 0.2-0.9 0.4-0.5 0.1-1 0.1-0.5 0.1-1 0.1z"/>
																</g>
															</g>
														</g>
													</g>
												</g>
											</g>
										</g>
									</g>
								</g>
							</g>
						</g>
					</g>
				</g>
			</g>
		</g>
	</g>
</svg>
