<svg version="1.2" xmlns="http://www.w3.org/2000/svg" viewBox="0 0 1500 476" width="100" height="476">
	<title>logo-white-svg</title>
	<style>
		.s0 { fill: #ffffff } 
	</style>
	<g id="Layer">
		<g id="Layer">
			<g id="tight-bounds">
				<g id="Layer">
					<g id="Layer">
						<g id="Layer">
							<g id="Layer">
								<g id="Layer">
									<g id="textblocktransform">
										<g id="textblock">
											<g id="Layer">
												<g id="Layer">
													<g id="Layer">
														<g id="Layer">
															<path id="text-0" fill-rule="evenodd" class="s0" d="m499.8 319.4v-146.6h39.3q23.2 0 33.7 8.6 10.4 8.6 10.4 26.2 0 8.2-2.2 14.2-2.3 6-5.1 10.1-3.2 4.7-7.1 8.1 5.2 2 9.7 5 4.5 3 8 7.3 3.4 4.3 5.5 10.2 2 5.9 2 13.9 0 8.8-2.4 16.6-2.3 7.9-7.9 13.7-5.6 5.8-14.9 9.2-9.3 3.5-23.1 3.5zm18.1-130.5v47.5h36q3-2.4 5.4-6.2 2.2-3.3 3.9-8.1 1.7-4.8 1.7-11.7 0-12.7-6.5-17.1-6.6-4.4-18.5-4.4zm0 62.5v51.8h29.3q14.2 0 21.3-7.3 7.2-7.3 7.2-19.5 0-5.4-1.4-9.9-1.4-4.5-4.9-7.9-3.4-3.3-9.3-5.2-5.8-2-14.4-2zm179.3 51l3.2 14.4q-5 1.5-10.3 2.6-5.2 1-11.6 1.9-6.3 0.9-13.2 0.9-10.8 0-20.1-3-9.2-3.1-16.1-9.7-6.9-6.7-10.9-17.3-4-10.7-4-26.1 0-14 3.9-24.7 3.9-10.6 10.6-17.8 6.8-7.2 16-10.9 9.2-3.6 19.9-3.6 10.6 0 18.3 4.1 7.8 4.1 12.8 11 5.1 7 7.6 16.4 2.5 9.3 2.5 19.7l-3.3 9.4h-69.5q0 6.7 1.7 13.3 1.7 6.7 5.9 12.1 4.2 5.3 11 8.7 6.8 3.3 16.9 3.3 6.5 0 11.9-0.8 5.3-0.7 9.3-1.7 4-0.9 7.5-2.2zm-63.6-46.4h54.3q0-1.6-0.7-6.7-0.6-5.2-3-10.8-2.3-5.6-7.3-10-5-4.4-13.1-4.4-9.1 0-14.9 3.8-5.8 3.8-9.3 8.9-3.4 5.2-4.7 10.6-1.3 5.3-1.3 8.6zm157.9 65.1l-2.2-11.8q-10.1 5.8-18.8 9.3-8.7 3.6-18.9 3.6-14.4 0-22.9-7-8.5-7-8.5-23.1 0-8.4 4.3-14.7 4.3-6.2 11.3-10.4 7-4.2 15.8-6.5 8.9-2.4 18.2-3 3.8-0.5 10.1-0.8 6.2-0.3 9.7-0.5 0-7.6-0.4-13.4-0.5-6-2.6-10.2-2.2-4.2-6.4-6.3-4.2-2.2-11.9-2.2-6.3 0-12.1 0.8-5.8 0.7-10.4 1.6-5.3 1.1-9.9 2.4l-3.4-14.9q5.4-1.3 11.6-2.3 5.4-1.1 12.5-1.9 7.1-0.7 15.3-0.7 11 0 17.8 3.2 6.8 3.2 10.5 8.7 3.8 5.5 5.2 12.5 1.4 7 1.4 14.7v51.6q0 3 0.1 6.3 0.1 3.4 0.4 6.6 0.3 3.2 0.8 6.7zm-1.9-26.9v-24.5q-4.3 0.2-8.2 0.4-3.9 0.2-7.6 0.5-3.8 0.4-6.8 0.8-15.5 1.9-22 6.8-6.4 4.8-6.4 13.8 0 7.6 4.6 11.3 4.6 3.8 12.2 3.8 10.3 0 18.4-3.6 8-3.5 15.8-9.3zm47.8 25.1v-88.5q0-7.3-1.3-17.6l16.2-2.2 2.3 13.5q5.9-4.3 11.5-7.5 5.6-3.2 12-5.6 6.5-2.3 13.2-2.3 10.7 0 17 3.7 6.2 3.8 9.2 12.8 8.9-6.2 18.5-11.4 9.6-5.1 19.9-5.1 8 0 13.6 2 5.6 2.1 9 6.8 3.5 4.7 5 12.5 1.5 7.7 1.5 19.3v69.6h-17.3v-67.7q0-6.4-0.2-11.5-0.2-5-1.5-8.6-1.3-3.5-4.2-5.4-2.9-2-8.3-2-4.9 0-9.3 1.4-4.5 1.4-9.2 4-4.7 2.6-14.7 10.5v79.3h-17.2v-67.7q0-6.4-0.2-11.5-0.2-5-1.5-8.6-1.3-3.5-4.2-5.4-2.9-2-8.3-2-5.6 0-11.6 2.4-6.1 2.3-11.5 5.6-5.3 3.2-11.2 7.5v79.7zm239.6-105.7l-3 15.2q-9.1-2.7-16.1-3.7-7-1-12.8-1-7.5 0-12.6 3.7-5 3.6-5 9.4 0.2 5.2 4.5 8.8 4.3 3.7 10 6.6 5.7 2.9 12.7 6.3 7 3.5 13.2 7.8 6.1 4.3 10 10.3 3.9 6 4.1 14.4-0.2 9-4 14.9-3.8 6-9.7 9.5-5.9 3.5-12.8 5-6.9 1.3-13 1.3-7.7 0-16-0.8-8.3-0.9-17.8-3.7l3.2-15.5q9.7 2.6 17.7 3.8 8 1.2 13.2 1.2 3.8 0 7.6-0.9 3.8-0.8 6.8-2.5 3-1.6 4.9-4.1 1.8-2.6 1.8-5.8-0.2-6.1-4.1-10.3-3.9-4.1-10.1-7.5-6.1-3.3-13.1-6.7-7-3.3-13.1-7.7-6.2-4.4-10.3-10.5-4.1-6.1-4.1-15.2 0-6.4 3.4-11.5 3.3-5 8.6-8.4 5.3-3.3 11.6-5.1 6.4-1.8 12.4-1.8 6.3 0 14 0.9 7.8 1 17.9 3.6zm36.2-32.5l17.2-2.1v32.2h31.3v14h-31.3v57.4q0 7.1 0.3 11.8 0.4 4.7 1.5 7.5 1 2.8 3 4 1.9 1.2 4.9 1.2 8.2-0.2 19-6l5.2 13.1q-7.1 4.7-13.3 6.4-6.1 1.5-12.2 1.5-14.2 0-19.9-8-5.7-8.1-5.7-26.8v-62.1h-19.8v-14h19.8zm132.7 140l-2.2-11.9q-10.1 5.8-18.8 9.4-8.8 3.5-18.9 3.5-14.4 0-22.9-7-8.5-6.9-8.5-23.1 0-8.3 4.3-14.6 4.3-6.2 11.3-10.4 7-4.2 15.8-6.6 8.9-2.3 18.1-3 3.9-0.4 10.1-0.7 6.3-0.3 9.7-0.6 0-7.5-0.4-13.4-0.4-5.9-2.6-10.1-2.1-4.2-6.3-6.3-4.2-2.2-12-2.2-6.2 0-12.1 0.7-5.8 0.8-10.3 1.7-5.4 1.1-9.9 2.3l-3.5-14.8q5.4-1.3 11.7-2.4 5.4-1 12.5-1.8 7.1-0.7 15.3-0.7 11 0 17.8 3.2 6.8 3.2 10.5 8.7 3.8 5.5 5.2 12.4 1.4 7 1.4 14.8v51.6q0 3 0.1 6.3 0.1 3.4 0.4 6.6 0.3 3.2 0.8 6.6zm-2-26.8v-24.5q-4.3 0.2-8.2 0.4-3.8 0.2-7.6 0.5-3.8 0.4-6.8 0.8-15.5 1.9-22 6.7-6.4 4.9-6.4 13.9 0 7.5 4.6 11.3 4.6 3.8 12.2 3.8 10.3 0 18.4-3.6 8.1-3.5 15.8-9.3zm118.3-81.7l-3.4 14.4q-3.7-0.9-10.2-1.9-6.4-0.9-13.1-0.9-9.7 0-15.8 3.9-6.2 3.8-9.6 9.9-3.5 6.2-4.8 13.6-1.3 7.4-1.3 14.5 0 11 2.8 18.8 2.8 7.9 7.5 12.8 4.6 5 10.6 7.2 6.1 2.3 12.7 2.3 4.6 0 8.8-0.6 4.2-0.5 7.7-1.3 3.6-0.7 6.8-1.8l3.5 14.4q-4.6 1.3-8.4 2.2-3.9 0.8-9.2 1.5-5.3 0.6-11.3 0.6-11.9 0-21.1-3-9.3-3-15.6-9.7-6.4-6.6-9.7-17.4-3.4-10.7-3.4-26.2 0-15.1 4.2-25.9 4.2-10.9 11.1-17.7 6.9-6.7 15.9-9.9 8.9-3.3 18.6-3.3 5.2 0 10 0.6 4.9 0.5 8.5 1.2 4.3 0.8 8.2 1.7zm23.5 106.8v-161l17.2-1.9v96.9l48.1-42.1h23.7l-47 41.1 48.7 67h-21.8l-39.6-56.1-12.1 10.5v45.6z"/>
														</g>
													</g>
												</g>
											</g>
										</g>
									</g>
								</g>
							</g>
							<g id="Layer">
								<g id="Layer">
									<g id="Layer">
										<g id="Layer">
										</g>
									</g>
									<g id="icon-0">
										<g id="Layer">
											<g id="Layer">
												<path id="Layer" fill-rule="evenodd" class="s0" d="m222.7 437.6c-109.9 0-198.7-88.7-198.7-198.3 0-109.7 88.8-198.3 198.7-198.3 109.9 0 198.7 88.6 198.7 198.3 0 109.6-88.8 198.3-198.7 198.3zm183.7-198.3c0-101.4-82.1-183.4-183.7-183.4-101.6 0-183.7 82-183.7 183.4 0 101.4 82.1 183.3 183.7 183.3 101.6 0 183.7-81.9 183.7-183.3z"/>
											</g>
											<g id="Layer">
												<g id="Layer">
													<g id="Layer">
														<g id="dxe-0">
															<g id="Layer">
																<g id="Layer">
																	<path id="Layer" fill-rule="evenodd" class="s0" d="m222.5 265.5c-1.2 0-2.5-0.3-3.6-1l-103-58.4c-1.1-0.6-2-1.5-2.7-2.6-0.7-1.1-1-2.4-1-3.7 0-1.3 0.3-2.6 0.9-3.7 0.7-1.1 1.6-2 2.7-2.7l103.5-61.4q0.8-0.5 1.8-0.8 1-0.3 2-0.3 0.9 0 1.9 0.3 1 0.3 1.8 0.8l103 60.5c1.1 0.6 2 1.6 2.7 2.7 0.6 1.1 0.9 2.4 0.9 3.7 0 1.3-0.3 2.5-1 3.7-0.6 1.1-1.6 2-2.7 2.6l-103.5 59.3c-1.1 0.7-2.4 1-3.7 1zm-88.2-65.9l88.2 50 88.8-50.8-88.2-51.9z"/>
																</g>
																<g id="Layer">
																	<path id="Layer" class="s0" d="m222.5 306.6c-1.2 0-2.5-0.3-3.6-1l-103-58.4c-1.7-0.9-3.1-2.5-3.6-4.4-0.6-1.9-0.3-4 0.7-5.7 0.9-1.7 2.6-3 4.5-3.5 2-0.5 4-0.2 5.7 0.8l99.3 56.3 99.9-57.1c1.7-1 3.7-1.3 5.6-0.8 1.9 0.5 3.5 1.8 4.4 3.5 1 1.7 1.3 3.7 0.8 5.6-0.5 1.9-1.8 3.5-3.5 4.4l-103.5 59.3q-0.4 0.2-0.8 0.4-0.5 0.2-0.9 0.3-0.5 0.2-1 0.2-0.5 0.1-1 0.1z"/>
																</g>
																<g id="Layer">
																	<path id="Layer" class="s0" d="m222.5 347.6c-1.2 0-2.5-0.3-3.6-0.9l-103-58.4c-1.7-0.9-3.1-2.5-3.6-4.5-0.6-1.9-0.3-3.9 0.7-5.7 0.9-1.7 2.6-2.9 4.5-3.4 2-0.6 4-0.3 5.7 0.8l99.3 56.3 99.9-57.2c1.7-0.9 3.6-1.1 5.5-0.6 1.8 0.6 3.4 1.8 4.4 3.4 0.9 1.7 1.2 3.7 0.7 5.5-0.5 1.9-1.6 3.5-3.3 4.5l-103.5 59.3q-0.4 0.2-0.8 0.4-0.5 0.2-0.9 0.3-0.5 0.1-1 0.2-0.5 0-1 0z"/>
																</g>
															</g>
														</g>
													</g>
												</g>
											</g>
										</g>
									</g>
								</g>
							</g>
						</g>
					</g>
				</g>
			</g>
		</g>
	</g>
</svg>
